<!--?xml version="1.0" standalone="no"?-->
              <svg id="sw-js-blob-svg" viewBox="0 0 100 100" xmlns="http://www.w3.org/2000/svg" version="1.1">
                    <defs> 
                        <linearGradient id="sw-gradient" x1="0" x2="1" y1="1" y2="0">
                            <stop id="stop1" stop-color="rgba(228, 199, 72, 1)" offset="0%"></stop>
                            <stop id="stop2" stop-color="rgba(183, 255, 0, 1)" offset="100%"></stop>
                        </linearGradient>
                    </defs>
                <path fill="url(#sw-gradient)" d="M21.5,-38.2C26.9,-34.1,29.8,-26.5,32.9,-19.5C35.9,-12.6,39.2,-6.3,39,-0.1C38.9,6.2,35.5,12.3,31.5,17.7C27.5,23,23,27.5,17.7,30.3C12.3,33,6.2,34,-0.4,34.7C-7,35.4,-13.9,35.8,-21.1,34.1C-28.3,32.4,-35.7,28.7,-39.8,22.6C-43.9,16.6,-44.7,8.3,-42.4,1.3C-40.1,-5.6,-34.6,-11.2,-30,-16.4C-25.4,-21.5,-21.6,-26.2,-16.8,-30.7C-11.9,-35.2,-5.9,-39.6,1,-41.4C8,-43.2,16,-42.4,21.5,-38.2Z" width="100%" height="100%" transform="translate(50 50)" stroke-width="0" style="transition: all 0.3s ease 0s;"></path>
              </svg>